<!DOCTYPE svg PUBLIC "-//W3C//DTD SVG 1.1//EN" "http://www.w3.org/Graphics/SVG/1.1/DTD/svg11.dtd">
<!-- Uploaded to: SVG Repo, www.svgrepo.com, Transformed by: SVG Repo Mixer Tools -->
<svg fill="#ffc663" version="1.1" id="Layer_1" xmlns="http://www.w3.org/2000/svg" xmlns:xlink="http://www.w3.org/1999/xlink" viewBox="0 0 496 496" xml:space="preserve" width="800px" height="800px">
<g id="SVGRepo_bgCarrier" stroke-width="0"/>
<g id="SVGRepo_tracerCarrier" stroke-linecap="round" stroke-linejoin="round"/>
<g id="SVGRepo_iconCarrier"> <g> <g> <g> <path d="M464,280h-80v-16h-16v16h-12.464c-7.52-27.12-24.28-50.384-46.744-66.176l23.856-38.168 c1.104,0.16,2.2,0.344,3.352,0.344c6.456,0,12.296-2.592,16.616-6.752l39.68,19.84c-0.12,0.968-0.296,1.92-0.296,2.912 c0,13.232,10.768,24,24,24s24-10.768,24-24c0-6.52-2.632-12.432-6.872-16.76l36.144-79.52C470.184,95.832,471.064,96,472,96 c13.232,0,24-10.768,24-24s-10.768-24-24-24s-24,10.768-24,24c0,6.52,2.632,12.432,6.872,16.76l-36.144,79.52 c-0.912-0.112-1.792-0.28-2.728-0.28c-6.456,0-12.296,2.592-16.616,6.752l-39.68-19.84c0.12-0.968,0.296-1.92,0.296-2.912 c0-13.232-10.768-24-24-24s-24,10.768-24,24c0,6.272,2.472,11.944,6.424,16.224L295.12,205.52 C278.592,196.936,259.872,192,240,192c-5.44,0-10.752,0.488-16,1.192V16h32V0h-32H112H80v16h32v205.76L10.272,388.864 C3.552,399.912,0,412.584,0,425.52C0,464.384,31.616,496,70.48,496h195.04c38.856,0,70.48-31.616,70.48-70.48 c0-11.264-2.848-22.264-7.984-32.232c12.792-13.832,22.344-30.64,27.52-49.296H368v16h16v-16h80c17.648,0,32-14.352,32-32 S481.648,280,464,280z M472,64c4.416,0,8,3.584,8,8s-3.584,8-8,8c-4.416,0-8-3.584-8-8S467.584,64,472,64z M416,184 c4.416,0,8,3.584,8,8s-3.584,8-8,8c-4.416,0-8-3.584-8-8S411.584,184,416,184z M336,144c4.416,0,8,3.584,8,8s-3.584,8-8,8 c-4.416,0-8-3.584-8-8S331.584,144,336,144z M243.352,288.336c-1.104-0.152-2.2-0.336-3.352-0.336c-13.232,0-24,10.768-24,24 s10.768,24,24,24s24-10.768,24-24c0-6.272-2.472-11.944-6.424-16.224l25.728-41.168C300.696,267.768,312,288.56,312,312 c0,39.704-32.296,72-72,72c-39.704,0-72-32.296-72-72c0-39.704,32.296-72,72-72c10.536,0,20.528,2.328,29.56,6.416 L243.352,288.336z M248,312c0,4.416-3.584,8-8,8s-8-3.584-8-8c0-4.416,3.584-8,8-8S248,307.584,248,312z M128,226.24V16h80 v180.464c-40.456,11.224-72.312,43.08-83.536,83.536H95.28L128,226.24z M265.52,480H70.48C40.44,480,16,455.56,16,425.52 c0-10,2.752-19.8,7.944-28.336L85.536,296h35.656c-0.704,5.248-1.192,10.56-1.192,16c0,66.168,53.832,120,120,120 c28.76,0,55.176-10.184,75.864-27.12c2.68,6.528,4.136,13.528,4.136,20.64C320,455.56,295.56,480,265.52,480z M240,416 c-57.344,0-104-46.656-104-104s46.656-104,104-104c16.76,0,32.56,4.08,46.592,11.152l-8.52,13.632 C266.536,227.216,253.648,224,240,224c-48.52,0-88,39.48-88,88c0,48.52,39.48,88,88,88s88-39.48,88-88 c0-29.152-14.304-54.96-36.2-70.984l8.496-13.592C326.696,246.304,344,277.136,344,312C344,369.344,297.344,416,240,416z M368,328h-9.192c0.704-5.248,1.192-10.56,1.192-16s-0.488-10.752-1.192-16H368V328z M464,328h-80v-32h80c8.824,0,16,7.176,16,16 C480,320.824,472.824,328,464,328z"/> <rect x="376" y="24" width="16" height="16"/> <rect x="347.746" y="35.677" transform="matrix(0.7071 0.7071 -0.7071 0.7071 135.0795 -238.7578)" width="16" height="16"/> <rect x="336" y="64" width="16" height="16"/> <rect x="347.74" y="92.23" transform="matrix(-0.7071 -0.7071 0.7071 -0.7071 536.4119 422.6493)" width="16" height="16"/> <rect x="376" y="104" width="16" height="16"/> <rect x="404.245" y="92.293" transform="matrix(0.7071 0.7071 -0.7071 0.7071 191.6615 -262.1257)" width="16" height="16"/> <rect x="416" y="64" width="16" height="16"/> <rect x="404.251" y="35.74" transform="matrix(0.7071 0.7071 -0.7071 0.7071 151.6749 -278.6951)" width="16" height="16"/> <rect x="304" y="64" width="16" height="16"/> <rect x="272" y="64" width="16" height="16"/> <rect x="240" y="64" width="16" height="16"/> </g> </g> </g> </g>
</svg>